<svg width="471" height="471" viewBox="0 0 471 471" fill="none" xmlns="http://www.w3.org/2000/svg">
<path fill-rule="evenodd" clip-rule="evenodd" d="M362.387 362.387C325.919 390.184 281.514 405.584 235.667 406.333C86.3333 406.333 1 235.667 1 235.667C27.5363 186.214 64.3416 143.008 108.947 108.947M190.867 70.12C205.551 66.6828 220.585 64.9646 235.667 65C385 65 470.333 235.667 470.333 235.667C457.384 259.893 441.94 282.701 424.253 303.72M280.893 280.893C275.034 287.181 267.969 292.225 260.118 295.723C252.267 299.221 243.793 301.102 235.199 301.253C226.606 301.405 218.07 299.824 210.101 296.605C202.132 293.386 194.893 288.595 188.815 282.518C182.738 276.441 177.947 269.201 174.728 261.232C171.509 253.263 169.929 244.727 170.08 236.134C170.232 227.541 172.113 219.066 175.611 211.215C179.109 203.365 184.152 196.299 190.44 190.44M1 1L470.333 470.333L1 1Z" fill="#A6A6A6"/>
<path d="M362.387 362.387C325.919 390.184 281.514 405.584 235.667 406.333C86.3333 406.333 1 235.667 1 235.667C27.5363 186.214 64.3416 143.008 108.947 108.947M190.867 70.12C205.551 66.6828 220.585 64.9646 235.667 65C385 65 470.333 235.667 470.333 235.667C457.384 259.893 441.94 282.701 424.253 303.72M280.893 280.893C275.034 287.181 267.969 292.225 260.118 295.723C252.267 299.221 243.793 301.102 235.199 301.253C226.606 301.405 218.07 299.824 210.101 296.605C202.132 293.386 194.893 288.595 188.815 282.518C182.738 276.441 177.947 269.201 174.728 261.232C171.509 253.263 169.929 244.727 170.08 236.134C170.232 227.541 172.113 219.066 175.611 211.215C179.109 203.365 184.152 196.299 190.44 190.44M1 1L470.333 470.333" stroke="#A6A6A6" stroke-linecap="round" stroke-linejoin="round"/>
</svg>
